<svg xmlns="http://www.w3.org/2000/svg" viewBox="0 0 64 64">
  <defs>
    <linearGradient id="leaf" x1="0%" y1="0%" x2="100%" y2="100%">
      <stop offset="0%" stop-color="#22c55e"/>
      <stop offset="100%" stop-color="#15803d"/>
    </linearGradient>
  </defs>
  <path d="M32 6C18 6 8 18 8 32c0 10 6 18 14 22 1-6 4-12 10-18 6 6 9 12 10 18 8-4 14-12 14-22C56 18 46 6 32 6z" fill="url(#leaf)"/>
  <path d="M32 28v30" stroke="#15803d" stroke-width="2.5" stroke-linecap="round" fill="none" opacity="0.6"/>
  <path d="M32 34c-5-4-9-5-13-4" stroke="#15803d" stroke-width="1.5" stroke-linecap="round" fill="none" opacity="0.4"/>
  <path d="M32 42c5-4 9-5 11-3" stroke="#15803d" stroke-width="1.5" stroke-linecap="round" fill="none" opacity="0.4"/>
</svg>
