<?xml version="1.0" standalone="no"?>
<!DOCTYPE svg PUBLIC "-//W3C//DTD SVG 20010904//EN"
 "http://www.w3.org/TR/2001/REC-SVG-20010904/DTD/svg10.dtd">
<svg version="1.0" xmlns="http://www.w3.org/2000/svg"
 width="1024.000000pt" height="1024.000000pt" viewBox="0 0 1024.000000 1024.000000"
 preserveAspectRatio="xMidYMid meet">

<g transform="translate(0.000000,1024.000000) scale(0.100000,-0.100000)"
fill="#000000" stroke="none">
<path d="M4047 8339 c-57 -13 -89 -33 -133 -81 -79 -85 -75 -41 -72 -878 l3
-745 27 -46 c59 -100 143 -145 258 -137 54 4 81 12 118 34 51 32 106 104 122
162 6 23 10 246 10 595 l0 557 2020 0 2020 0 0 -2700 0 -2700 -2020 0 -2019 0
-3 583 -3 582 -29 53 c-114 205 -416 182 -491 -37 -13 -38 -15 -146 -15 -775
l0 -731 24 -50 c28 -62 77 -111 136 -139 l45 -21 2355 0 2355 0 57 28 c33 16
70 45 88 67 65 82 60 -177 60 3144 0 3375 7 3076 -72 3157 -22 22 -61 51 -86
62 l-47 22 -2335 2 c-1347 0 -2351 -3 -2373 -8z"/>
<path d="M3269 7147 c-25 -7 -58 -23 -75 -34 -16 -12 -446 -439 -955 -950
-866 -868 -927 -931 -939 -975 -16 -60 -9 -151 15 -203 25 -55 1860 -1882
1915 -1908 139 -63 306 6 360 149 19 52 20 77 20 509 l0 455 1098 2 1097 3 41
22 c54 29 107 89 130 149 18 46 19 86 19 744 l0 695 -24 53 c-14 30 -43 69
-68 92 -85 74 -12 70 -1215 70 l-1078 0 0 455 c0 433 -1 457 -20 509 -23 59
-87 128 -144 151 -50 21 -126 26 -177 12z"/>
</g>
</svg>
