<?xml version="1.0" standalone="no"?>
<!DOCTYPE svg PUBLIC "-//W3C//DTD SVG 20010904//EN"
 "http://www.w3.org/TR/2001/REC-SVG-20010904/DTD/svg10.dtd">
<svg version="1.0" xmlns="http://www.w3.org/2000/svg"
 width="2500.000000pt" height="2500.000000pt" viewBox="0 0 2500.000000 2500.000000"
 preserveAspectRatio="xMidYMid meet">

<g transform="translate(0.000000,2500.000000) scale(0.100000,-0.100000)"
fill="#000000" stroke="none">
<path d="M10165 21109 c-180 -23 -297 -127 -365 -324 -32 -94 -58 -231 -90
-490 -36 -287 -58 -403 -95 -500 -42 -113 -95 -172 -179 -201 -83 -28 -185
-15 -461 61 -363 100 -1922 484 -2065 509 -187 33 -296 29 -380 -14 -58 -30
-128 -114 -170 -203 -52 -113 -203 -584 -240 -752 -61 -273 -6 -424 185 -515
104 -49 166 -66 1073 -285 2093 -505 3892 -945 8077 -1975 2797 -688 2597
-643 2815 -644 136 -1 148 1 200 25 176 83 241 227 370 829 28 129 55 268 60
307 16 127 -14 223 -88 280 -60 45 -130 69 -377 125 -121 27 -542 130 -935
228 -804 201 -849 212 -1155 280 -121 26 -245 58 -275 69 -80 31 -144 81 -170
136 -35 72 -26 198 28 380 49 167 95 351 163 644 27 119 61 262 76 319 54 218
14 273 -223 306 -65 9 -510 115 -1070 255 -988 246 -1743 432 -2986 735 -544
133 -772 193 -947 251 -463 152 -619 185 -776 164z"/>
<path d="M7345 15108 c-277 -35 -415 -206 -415 -515 0 -56 36 -754 80 -1550
171 -3108 284 -5235 379 -7168 71 -1428 75 -1487 96 -1585 49 -220 170 -341
388 -384 69 -15 531 -16 4615 -16 3154 0 4556 3 4597 10 256 46 374 169 420
438 9 51 30 388 50 807 103 2107 248 4853 435 8242 33 595 60 1136 60 1201 0
133 -23 246 -64 316 -56 95 -154 162 -282 192 -63 15 -484 16 -5184 18 -2814
0 -5142 -2 -5175 -6z m1619 -1232 c98 -48 156 -138 187 -291 11 -56 32 -283
54 -595 92 -1301 284 -3983 370 -5175 53 -726 98 -1387 100 -1470 2 -82 9
-234 16 -337 19 -282 -2 -395 -91 -491 -24 -26 -66 -56 -103 -73 -57 -27 -71
-29 -182 -29 -105 0 -127 3 -172 24 -102 46 -172 151 -204 306 -24 117 -51
473 -274 3625 -101 1438 -208 2941 -236 3340 -46 648 -51 736 -41 826 13 120
39 196 88 252 74 87 178 124 336 118 80 -2 106 -7 152 -30z m2387 24 c148 -28
233 -116 277 -287 16 -64 17 -296 17 -3953 0 -3657 -1 -3889 -17 -3953 -20
-76 -55 -150 -92 -194 -64 -76 -213 -116 -356 -95 -180 26 -273 123 -311 323
-9 49 -11 972 -12 3919 0 3600 1 3860 17 3934 28 130 93 231 175 275 67 36
201 50 302 31z m2546 -18 c108 -41 173 -124 210 -268 17 -65 18 -270 18 -3944
0 -3169 -2 -3888 -13 -3945 -28 -148 -97 -242 -211 -287 -75 -29 -250 -32
-328 -5 -114 40 -186 131 -221 279 -16 68 -17 333 -15 3939 1 2862 4 3882 13
3929 33 181 124 288 274 320 66 14 214 4 273 -18z m2431 14 c127 -34 207 -114
247 -246 34 -116 31 -199 -64 -1500 -124 -1704 -343 -4772 -386 -5405 -66
-977 -70 -1014 -129 -1141 -61 -130 -142 -185 -283 -192 -205 -11 -345 64
-403 214 -20 51 -23 78 -24 199 -1 77 5 214 12 305 7 91 14 230 17 310 2 80
88 1311 190 2735 101 1425 212 2977 245 3450 33 477 67 896 76 940 45 234 164
344 369 345 44 0 104 -7 133 -14z"/>
</g>
</svg>
